<svg width="696" height="468" viewBox="0 0 696 468" fill="none" xmlns="http://www.w3.org/2000/svg">
<path d="M541.99 236.747C549.484 236.747 555.56 230.672 555.56 223.177C555.56 215.683 549.484 209.607 541.99 209.607C534.495 209.607 528.42 215.683 528.42 223.177C528.42 230.672 534.495 236.747 541.99 236.747Z" fill="#7C25FF"/>
<path d="M541.99 237.018C534.36 237.018 528.14 230.808 528.14 223.168C528.14 215.528 534.35 209.318 541.99 209.318C549.63 209.318 555.83 215.528 555.83 223.168C555.83 230.808 549.62 237.018 541.99 237.018ZM541.99 209.878C534.66 209.878 528.7 215.838 528.7 223.168C528.7 230.498 534.66 236.458 541.99 236.458C549.32 236.458 555.28 230.498 555.28 223.168C555.28 215.838 549.32 209.878 541.99 209.878Z" fill="#001E2B"/>
<path d="M541.99 229.829C545.663 229.829 548.64 226.852 548.64 223.179C548.64 219.507 545.663 216.529 541.99 216.529C538.317 216.529 535.34 219.507 535.34 223.179C535.34 226.852 538.317 229.829 541.99 229.829Z" fill="#001E2B"/>
<path d="M541.99 230.11C538.17 230.11 535.06 227 535.06 223.18C535.06 219.36 538.17 216.25 541.99 216.25C545.81 216.25 548.92 219.36 548.92 223.18C548.92 227 545.81 230.11 541.99 230.11ZM541.99 216.81C538.48 216.81 535.62 219.67 535.62 223.18C535.62 226.69 538.48 229.55 541.99 229.55C545.5 229.55 548.36 226.69 548.36 223.18C548.36 219.67 545.5 216.81 541.99 216.81Z" fill="#001E2B"/>
<path d="M147.51 272.898C155.005 272.898 161.08 266.822 161.08 259.328C161.08 251.833 155.005 245.758 147.51 245.758C140.016 245.758 133.94 251.833 133.94 259.328C133.94 266.822 140.016 272.898 147.51 272.898Z" fill="#00ED64"/>
<path d="M147.51 273.169C139.88 273.169 133.66 266.959 133.66 259.319C133.66 251.679 139.87 245.469 147.51 245.469C155.15 245.469 161.36 251.679 161.36 259.319C161.36 266.959 155.15 273.169 147.51 273.169ZM147.51 246.029C140.18 246.029 134.22 251.989 134.22 259.319C134.22 266.649 140.18 272.609 147.51 272.609C154.84 272.609 160.8 266.649 160.8 259.319C160.8 251.989 154.84 246.029 147.51 246.029Z" fill="#001E2B"/>
<path d="M147.51 265.978C151.183 265.978 154.16 263 154.16 259.328C154.16 255.655 151.183 252.678 147.51 252.678C143.837 252.678 140.86 255.655 140.86 259.328C140.86 263 143.837 265.978 147.51 265.978Z" fill="#001E2B"/>
<path d="M147.51 266.258C143.69 266.258 140.58 263.148 140.58 259.328C140.58 255.508 143.69 252.398 147.51 252.398C151.33 252.398 154.44 255.508 154.44 259.328C154.44 263.148 151.33 266.258 147.51 266.258ZM147.51 252.958C144 252.958 141.14 255.818 141.14 259.328C141.14 262.838 144 265.698 147.51 265.698C151.02 265.698 153.88 262.838 153.88 259.328C153.88 255.818 151.02 252.958 147.51 252.958Z" fill="#001E2B"/>
<g style="mix-blend-mode:multiply">
<g style="mix-blend-mode:multiply">
<path d="M312.119 423.04L300.979 390.74L300.859 390.69C297.339 389.37 293.909 387.95 290.659 386.48C284.069 383.48 277.599 379.99 271.429 376.09L271.309 376.01L241.809 387.97L206.069 352.91L218.469 320.56L218.399 320.45C213.079 311.06 208.699 301.12 205.389 290.89L205.349 290.75L174.739 280.85L169.899 231.01L200.129 214.23L200.149 214.1C202.059 203.5 205.089 193 209.149 182.91L209.199 182.78L192.209 155.67L220.539 114.38L253.969 120.86L254.069 120.77C262.529 113.65 271.799 107.39 281.609 102.16L281.729 102.09L286.059 71.0098L334.299 57.5898L355.259 83.4498C355.259 83.4498 356.059 83.4498 356.389 83.4498C367.499 83.4498 378.639 84.6398 389.509 86.9698L389.649 86.9998L412.369 66.4898L457.949 87.2198L457.399 119.84L457.499 119.93C466.529 127.4 474.739 135.9 481.889 145.2L481.979 145.31L512.029 144.22L533.619 189.4L512.369 213.87L512.389 214C514.489 225.64 515.289 237.5 514.769 249.25V249.39L538.409 267.82L525.909 316.31L493.619 321.44L493.549 321.55C487.729 331.64 480.779 341.08 472.909 349.62L472.809 349.73L479.169 379.46L438.429 408.57L409.779 391.38L409.659 391.42C399.019 395.22 387.949 397.9 376.759 399.36L376.619 399.38L362.029 426.9L312.109 423.01L312.119 423.04ZM356.939 118.69C333.959 118.69 311.419 125.1 291.759 137.22C271.609 149.64 255.589 167.46 245.429 188.74C230.859 219.27 229.359 253.51 241.219 285.13C253.059 316.7 276.629 341.47 307.589 354.86C322.949 361.5 339.219 364.87 355.939 364.87C378.919 364.87 401.459 358.46 421.119 346.34C441.269 333.92 457.289 316.1 467.449 294.82C482.019 264.29 483.519 230.05 471.659 198.43C459.819 166.86 436.249 142.09 405.289 128.7C389.929 122.06 373.659 118.69 356.939 118.69Z" fill="#001E2B"/>
</g>
<g style="mix-blend-mode:multiply">
<path d="M334.21 57.9295L354.97 83.5395L355.14 83.7495H355.41C355.74 83.7495 356.07 83.7495 356.4 83.7495C367.49 83.7495 378.61 84.9295 389.46 87.2695L389.74 87.3295L389.95 87.1395L412.43 66.8495L417.3 69.0695L452.81 85.2095L457.68 87.4295L457.13 119.73V120L457.33 120.17C466.34 127.63 474.54 136.11 481.68 145.39L481.85 145.62H482.14L511.86 144.54L521.05 163.76L533.3 189.39L512.26 213.62L512.09 213.82L512.14 214.08C514.24 225.69 515.04 237.53 514.51 249.27V249.56L514.72 249.74L538.11 267.97L533.4 286.25L525.71 316.1L493.73 321.18L493.47 321.22L493.34 321.45C487.53 331.52 480.59 340.95 472.73 349.47L472.53 349.68L472.59 349.96L478.88 379.37L474.53 382.48L442.8 405.16L438.45 408.27L410.07 391.24L409.84 391.1L409.59 391.19C398.97 394.99 387.92 397.66 376.75 399.12L376.47 399.16L376.34 399.41L361.9 426.64L356.56 426.22L312.34 422.78L301.3 390.77L301.21 390.52L300.96 390.43C297.45 389.11 294.02 387.7 290.77 386.22C284.19 383.23 277.74 379.74 271.58 375.85L271.34 375.7L271.08 375.81L241.88 387.65L226.28 372.35L206.4 352.84L218.69 320.78L218.78 320.54L218.65 320.31C213.34 310.94 208.97 301.01 205.66 290.8L205.57 290.53L205.3 290.44L175 280.64L173.86 268.89L170.19 231.16L200.15 214.54L200.38 214.41L200.43 214.15C202.33 203.57 205.36 193.09 209.42 183.02L209.53 182.76L209.38 182.52L192.57 155.68L203.32 140.02L220.69 114.69L253.81 121.11L254.07 121.16L254.27 120.99C262.72 113.88 271.97 107.63 281.76 102.41L282.01 102.28L282.05 102L286.34 71.2395L313.71 63.6195L334.23 57.9095L334.21 57.9295ZM355.97 365.13C379 365.13 401.59 358.71 421.3 346.56C441.5 334.11 457.56 316.25 467.73 294.93C475.1 279.48 479.15 263.05 479.76 246.11C480.34 229.77 477.72 213.69 471.95 198.32C466.2 182.97 457.62 169.15 446.47 157.25C434.91 144.91 421.1 135.21 405.43 128.44C390.03 121.78 373.73 118.41 356.97 118.41C333.94 118.41 311.35 124.83 291.64 136.98C271.44 149.43 255.38 167.29 245.21 188.61C237.84 204.06 233.79 220.49 233.18 237.43C232.6 253.77 235.22 269.85 240.99 285.22C246.74 300.57 255.32 314.39 266.47 326.29C278.03 338.63 291.84 348.33 307.51 355.1C322.91 361.76 339.21 365.13 355.97 365.13ZM334.44 57.2695L313.57 63.0795L285.85 70.7895L281.51 101.91C271.74 107.12 262.48 113.35 253.92 120.55L220.44 114.06L202.86 139.69L191.91 155.65L208.92 182.8C204.78 193.06 201.79 203.53 199.9 214.04L169.63 230.84L173.33 268.93L174.51 281.04L205.15 290.96C208.47 301.23 212.84 311.16 218.18 320.57L205.76 352.97L225.9 372.73L241.76 388.29L271.3 376.32C277.39 380.17 283.81 383.66 290.56 386.73C293.94 388.27 297.35 389.67 300.78 390.95L311.94 423.3L356.52 426.77L317.63 423.74L362.21 427.21L376.82 399.66C388.08 398.18 399.13 395.51 409.78 391.7L438.47 408.92L452.32 399.02L443.12 405.59L474.85 382.91L452.31 399.01L479.5 379.58L473.13 349.81C480.92 341.36 487.88 331.97 493.81 321.69L526.15 316.55L533.93 286.35L538.73 267.71L515.05 249.26C515.58 237.36 514.76 225.51 512.67 213.95L533.95 189.44L521.54 163.48L512.2 143.94L482.11 145.03C475 135.8 466.83 127.3 457.67 119.72L458.22 87.0495L453.02 84.6795L417.51 68.5395L412.31 66.1695L389.56 86.6995C378.53 84.3295 367.41 83.1695 356.38 83.1695C356.05 83.1695 355.72 83.1695 355.38 83.1695L334.39 57.2695H334.44ZM355.97 364.57C339.79 364.57 323.4 361.36 307.73 354.58C243.8 326.93 215.67 251.77 245.71 188.83C266.65 144.95 310.95 118.95 356.97 118.94C373.15 118.94 389.54 122.15 405.21 128.93C469.14 156.58 497.26 231.74 467.23 294.68C446.29 338.56 401.99 364.57 355.97 364.57Z" fill="#001E2B"/>
</g>
</g>
<path d="M312.12 406.53L300.98 374.23L300.86 374.18C297.34 372.86 293.91 371.44 290.66 369.97C284.07 366.97 277.6 363.48 271.43 359.58L271.31 359.5L241.81 371.46L206.07 336.4L218.47 304.05L218.4 303.94C213.08 294.55 208.7 284.61 205.39 274.38L205.35 274.24L174.74 264.34L169.9 214.5L200.13 197.72L200.15 197.59C202.06 186.99 205.09 176.49 209.15 166.4L209.2 166.27L192.21 139.16L220.54 97.8701L253.97 104.35L254.07 104.26C262.53 97.1401 271.8 90.8801 281.61 85.6501L281.73 85.5801L286.06 54.5001L334.3 41.0801L355.26 66.9401C355.26 66.9401 356.06 66.9401 356.39 66.9401C367.5 66.9401 378.64 68.1301 389.51 70.4601L389.65 70.4901L412.37 49.9801L457.95 70.7101L457.4 103.33L457.5 103.42C466.53 110.89 474.74 119.39 481.89 128.69L481.98 128.8L512.03 127.71L533.62 172.89L512.37 197.36L512.39 197.49C514.49 209.13 515.29 220.99 514.77 232.74V232.88L538.41 251.31L525.91 299.8L493.62 304.93L493.55 305.04C487.73 315.13 480.78 324.57 472.91 333.11L472.81 333.22L479.17 362.95L438.43 392.06L409.78 374.87L409.66 374.91C399.02 378.71 387.95 381.39 376.76 382.85L376.62 382.87L362.03 410.39L312.11 406.5L312.12 406.53ZM356.94 102.18C333.96 102.18 311.42 108.59 291.76 120.71C271.61 133.13 255.59 150.95 245.43 172.23C230.86 202.76 229.36 237 241.22 268.62C253.06 300.19 276.63 324.96 307.59 338.35C322.95 344.99 339.22 348.36 355.94 348.36C378.92 348.36 401.46 341.95 421.12 329.83C441.27 317.41 457.29 299.59 467.45 278.31C482.02 247.78 483.52 213.54 471.66 181.92C459.82 150.35 436.25 125.58 405.29 112.19C389.93 105.55 373.66 102.18 356.94 102.18Z" fill="white"/>
<path d="M334.21 41.4093L354.97 67.0193L355.14 67.2293H355.41C355.74 67.2293 356.07 67.2293 356.4 67.2293C367.49 67.2293 378.61 68.4093 389.46 70.7493L389.74 70.8093L389.95 70.6193L412.43 50.3293L417.3 52.5493L452.81 68.6893L457.68 70.9093L457.13 103.209V103.479L457.33 103.649C466.34 111.109 474.54 119.589 481.68 128.869L481.85 129.099H482.14L511.86 128.019L521.05 147.239L533.3 172.869L512.26 197.099L512.09 197.299L512.14 197.559C514.24 209.169 515.04 221.009 514.51 232.749V233.039L514.72 233.219L538.11 251.449L533.4 269.729L525.71 299.579L493.73 304.659L493.47 304.699L493.34 304.929C487.53 314.999 480.59 324.429 472.73 332.949L472.53 333.159L472.59 333.439L478.88 362.849L474.53 365.959L442.8 388.639L438.45 391.749L410.07 374.719L409.84 374.579L409.59 374.669C398.97 378.469 387.92 381.139 376.75 382.599L376.47 382.639L376.34 382.889L361.9 410.119L356.56 409.699L312.34 406.259L301.3 374.249L301.21 373.999L300.96 373.909C297.45 372.589 294.02 371.179 290.77 369.699C284.19 366.709 277.74 363.219 271.58 359.329L271.34 359.179L271.08 359.289L241.88 371.129L226.28 355.829L206.4 336.319L218.69 304.259L218.78 304.019L218.65 303.789C213.34 294.419 208.97 284.489 205.66 274.279L205.57 274.009L205.3 273.919L175 264.119L173.86 252.369L170.19 214.639L200.15 198.019L200.38 197.889L200.43 197.629C202.33 187.049 205.36 176.569 209.42 166.499L209.53 166.239L209.38 165.999L192.57 139.159L203.32 123.499L220.69 98.1693L253.81 104.589L254.07 104.639L254.27 104.469C262.72 97.3593 271.97 91.1093 281.76 85.8893L282.01 85.7593L282.05 85.4793L286.34 54.7193L313.71 47.0993L334.23 41.3893L334.21 41.4093ZM355.97 348.609C379 348.609 401.59 342.189 421.3 330.039C441.5 317.589 457.56 299.729 467.73 278.409C475.1 262.959 479.15 246.529 479.76 229.589C480.34 213.249 477.72 197.169 471.95 181.799C466.2 166.449 457.62 152.629 446.47 140.729C434.91 128.389 421.1 118.689 405.43 111.919C390.03 105.259 373.73 101.889 356.97 101.889C333.94 101.889 311.35 108.309 291.64 120.459C271.44 132.909 255.38 150.769 245.21 172.089C237.84 187.539 233.79 203.969 233.18 220.909C232.6 237.249 235.22 253.329 240.99 268.699C246.74 284.049 255.32 297.869 266.47 309.769C278.03 322.109 291.84 331.809 307.51 338.579C322.91 345.239 339.21 348.609 355.97 348.609ZM334.41 40.7793L313.54 46.5893L285.82 54.2993L281.48 85.4193C271.71 90.6293 262.45 96.8593 253.89 104.059L220.41 97.5693L202.83 123.199L191.88 139.159L208.89 166.309C204.75 176.569 201.76 187.039 199.87 197.549L169.6 214.349L173.3 252.439L174.48 264.549L205.12 274.469C208.44 284.739 212.81 294.669 218.15 304.079L205.73 336.479L225.87 356.239L241.73 371.799L271.27 359.829C277.36 363.679 283.78 367.169 290.53 370.239C293.91 371.779 297.32 373.179 300.75 374.459L311.91 406.809L356.49 410.279L317.6 407.249L362.18 410.719L376.79 383.169C388.05 381.689 399.1 379.019 409.75 375.209L438.44 392.429L452.29 382.529L443.09 389.099L474.82 366.419L452.28 382.519L479.47 363.089L473.1 333.319C480.89 324.869 487.85 315.479 493.78 305.199L526.12 300.059L533.9 269.859L538.7 251.219L515.02 232.769C515.55 220.869 514.73 209.019 512.64 197.459L533.92 172.949L521.51 146.989L512.17 127.449L482.08 128.539C474.97 119.309 466.8 110.809 457.64 103.229L458.19 70.5593L452.99 68.1893L417.48 52.0493L412.28 49.6793L389.53 70.2093C378.5 67.8393 367.38 66.6793 356.35 66.6793C356.02 66.6793 355.69 66.6793 355.35 66.6793L334.36 40.7793H334.41ZM355.94 348.079C339.76 348.079 323.37 344.869 307.7 338.089C243.77 310.439 215.64 235.279 245.68 172.339C266.62 128.459 310.92 102.459 356.94 102.449C373.12 102.449 389.51 105.659 405.18 112.439C469.11 140.089 497.23 215.249 467.2 278.189C446.26 322.069 401.96 348.079 355.94 348.079Z" fill="#001E2B"/>
<path d="M545.2 226.318C547 224.518 546.95 221.588 545.09 219.848C543.32 218.188 540.55 218.238 538.83 219.948L491.9 266.878C481.94 276.838 465.72 276.838 455.76 266.878L451.21 262.328C441.25 252.368 441.25 236.148 451.21 226.188L475.51 201.888C475.41 201.448 475.06 200.048 474.23 197.218C473.51 194.788 472.9 192.958 472.6 192.068L444.85 219.818C431.38 233.288 431.38 255.218 444.85 268.688L449.4 273.238C462.87 286.708 484.8 286.708 498.27 273.238L545.2 226.308V226.318Z" fill="#7C25FF"/>
<path d="M473.84 283.638C464.53 283.638 455.78 280.018 449.21 273.448L444.66 268.898C431.08 255.318 431.08 233.218 444.66 219.638L472.73 191.568L472.87 191.988C473.17 192.858 473.77 194.688 474.5 197.148C475.32 199.928 475.67 201.348 475.79 201.828L475.82 201.978L475.71 202.088L451.41 226.388C446.64 231.158 444.02 237.498 444.02 244.258C444.02 251.018 446.65 257.368 451.41 262.128L455.96 266.678C465.82 276.538 481.85 276.538 491.71 266.678L538.64 219.748C540.47 217.918 543.39 217.868 545.28 219.638C546.23 220.528 546.77 221.738 546.79 223.048C546.81 224.358 546.32 225.578 545.39 226.508L498.46 273.438C491.89 280.008 483.14 283.628 473.83 283.628L473.84 283.638ZM472.49 192.598L445.06 220.028C431.7 233.388 431.7 255.138 445.06 268.508L449.61 273.058C456.07 279.518 464.68 283.078 473.85 283.078C483.02 283.078 491.62 279.518 498.09 273.058L545.02 226.128C545.84 225.308 546.28 224.228 546.26 223.068C546.24 221.918 545.77 220.848 544.92 220.058C543.25 218.498 540.67 218.538 539.05 220.158L492.12 267.088C482.05 277.158 465.66 277.158 455.59 267.088L451.04 262.538C446.17 257.668 443.49 251.178 443.49 244.268C443.49 237.358 446.17 230.868 451.04 225.998L475.23 201.808C475.09 201.218 474.73 199.828 473.99 197.308C473.37 195.208 472.83 193.568 472.51 192.598H472.49Z" fill="#001E2B"/>
<path d="M509.44 82.9588C519.4 72.9988 535.62 72.9988 545.58 82.9588C555.54 92.9188 555.54 109.139 545.58 119.099L520.3 144.379L524.42 152.989L551.95 125.459C565.42 111.989 565.42 90.0588 551.95 76.5888C538.48 63.1188 516.55 63.1188 503.08 76.5888L432.73 146.939L439.09 153.299L509.44 82.9488V82.9588Z" fill="#7C25FF"/>
<path d="M439.09 153.709L432.33 146.949L502.88 76.399C509.45 69.829 518.2 66.209 527.51 66.209C536.82 66.209 545.57 69.829 552.14 76.399C558.71 82.969 562.33 91.719 562.33 101.029C562.33 110.339 558.71 119.089 552.14 125.659L524.33 153.469L519.96 144.329L545.38 118.909C550.15 114.139 552.77 107.799 552.77 101.039C552.77 94.279 550.14 87.929 545.38 83.169C540.61 78.399 534.27 75.779 527.51 75.779C520.75 75.779 514.4 78.409 509.64 83.169L439.09 153.719V153.709ZM433.12 146.949L439.09 152.919L509.24 82.769C514.11 77.899 520.6 75.219 527.51 75.219C534.42 75.219 540.91 77.899 545.78 82.769C550.65 87.639 553.33 94.129 553.33 101.039C553.33 107.949 550.65 114.439 545.78 119.309L520.64 144.449L524.5 152.529L551.75 125.279C558.21 118.819 561.77 110.209 561.77 101.039C561.77 91.869 558.21 83.269 551.75 76.799C545.29 70.339 536.68 66.779 527.51 66.779C518.34 66.779 509.74 70.339 503.27 76.799L433.12 146.949Z" fill="#001E2B"/>
<path d="M357.705 210.512L354.806 207.613L345.982 216.438L348.881 219.337L357.705 210.512Z" fill="#001E2B"/>
<path d="M378.255 231.065L375.356 228.166L366.532 236.991L369.431 239.89L378.255 231.065Z" fill="#001E2B"/>
<path d="M405.82 233.809C413.775 225.854 408.086 207.268 393.113 192.295C378.141 177.322 359.554 171.633 351.599 179.588C343.644 187.543 349.333 206.13 364.306 221.103C379.278 236.075 397.865 241.764 405.82 233.809Z" fill="white"/>
<path d="M406.19 234.031C398.06 242.161 379.33 236.611 364.35 221.631C349.37 206.651 343.82 187.921 351.95 179.791L360.05 171.691C368.18 163.561 386.91 169.111 401.89 184.091C416.87 199.071 422.42 217.801 414.29 225.931L406.19 234.031Z" fill="#F2C5EE"/>
<path d="M395.93 238.03C386.65 238.03 374.48 232.17 364.14 221.83C349.08 206.77 343.51 187.82 351.74 179.6L359.84 171.5C363.85 167.49 370.46 166.59 378.47 168.96C386.42 171.32 394.8 176.62 402.08 183.9C417.14 198.96 422.71 217.91 414.48 226.13C414.21 226.4 406.38 234.23 406.38 234.23C403.8 236.81 400.17 238.03 395.93 238.03ZM370.31 168.21C366.13 168.21 362.68 169.45 360.24 171.88L352.14 179.98C344.13 187.99 349.69 206.58 364.54 221.43C379.39 236.28 397.98 241.84 405.99 233.83C405.99 233.83 413.82 226 414.09 225.73C422.1 217.72 416.54 199.13 401.69 184.28C394.48 177.07 386.18 171.81 378.32 169.48C375.44 168.63 372.75 168.2 370.31 168.2V168.21Z" fill="#001E2B"/>
<path d="M434.78 163.53L436.82 161.49C440.26 158.05 440.26 152.48 436.82 149.04C433.38 145.6 427.81 145.6 424.37 149.04L422.33 151.08C409.15 141.89 393.63 140.85 384.99 149.48C384.58 149.89 384.21 150.31 383.84 150.75L361.51 173.16C354.18 180.49 359.7 197.89 373.83 212.03C387.96 226.16 405.36 231.68 412.7 224.35L435.11 202.02C435.55 201.66 435.97 201.28 436.38 200.87C445.01 192.24 443.96 176.71 434.78 163.53Z" fill="#7C25FF"/>
<path d="M403.77 227.84C395.15 227.84 383.57 222.15 373.64 212.22C359.42 198 353.89 180.39 361.32 172.96L383.65 150.55C384.06 150.06 384.43 149.65 384.8 149.28C393.33 140.75 408.72 141.35 422.3 150.72L424.17 148.85C427.71 145.31 433.47 145.31 437.01 148.85C440.55 152.39 440.55 158.15 437.01 161.69L435.14 163.56C444.51 177.13 445.11 192.53 436.58 201.06C436.21 201.43 435.8 201.8 435.29 202.22L412.9 224.53C410.66 226.77 407.49 227.83 403.77 227.83V227.84ZM400.53 143.82C394.51 143.82 389.1 145.76 385.19 149.67C384.83 150.03 384.47 150.42 384.06 150.92L361.72 173.35C354.51 180.56 360.04 197.82 374.04 211.82C388.04 225.82 405.3 231.35 412.51 224.14L434.92 201.81C435.43 201.38 435.83 201.02 436.19 200.66C444.57 192.28 443.89 177.08 434.55 163.68L434.42 163.49L436.62 161.29C439.94 157.97 439.94 152.56 436.62 149.23C433.3 145.91 427.89 145.91 424.56 149.23L422.36 151.43L422.17 151.3C415.04 146.33 407.39 143.81 400.53 143.81V143.82Z" fill="#001E2B"/>
<path d="M435.52 144.16L432.9 146.78C432.9 146.78 432.87 148.64 435.1 150.87C437.33 153.1 439.08 153.18 439.08 153.18L441.81 150.45C441.81 150.45 440.11 150.34 437.93 148.17C435.75 146 435.51 144.16 435.51 144.16H435.52Z" fill="#001E2B"/>
<path d="M394.79 225.94L425.92 194.81C425.92 194.81 442.78 178.88 433.1 162.77C432.05 161.02 434.28 162.94 432.54 161.21C432.54 161.21 432.17 160.15 434.78 163.53C437.74 167.38 440.21 172.46 441.67 180.23C444.42 194.82 437.78 199.64 428.69 208.72C419.61 217.8 411.91 225.24 411.91 225.24C411.91 225.24 406.66 230.07 394.79 225.95V225.94Z" fill="#001E2B"/>
<path d="M382.27 234.38L391.85 224.8C391.85 224.8 398.45 227.65 404.92 227.56C410.29 226.55 410.19 226.77 417.66 219.29C417.8 219.07 417.64 221.37 415.79 224.09C415.02 225.22 413.67 226.47 412.36 227.78C407.9 232.24 404.82 235.18 404.82 235.18C404.82 235.18 400.16 238.38 393.54 237.67C387.21 236.99 382.27 234.38 382.27 234.38Z" fill="#001E2B"/>
<path d="M210.14 287.878L215.31 298.838L242.86 272.798L238.34 259.568L210.14 287.878Z" fill="#001E2B"/>
<path d="M448.67 143.709L455.22 152.559L482.11 128.579L473.59 118.789L448.67 143.709Z" fill="#001E2B"/>
<path d="M459.34 292.23C478.07 297.5 490.16 293.04 502.75 281.22C515.34 269.4 535.45 248.67 535.45 248.67L528.37 243.16C528.37 243.16 501.08 271 496.16 275.33C491.75 279.22 485.91 281.77 477.64 283.19C474.73 283.69 465.17 282.27 465.17 282.27C465.17 282.27 460.16 290.88 459.34 292.23Z" fill="#013330"/>
<path d="M144.28 262.308C146.04 264.068 148.89 264.068 150.64 262.308L172.17 240.778L171.04 229.178L144.28 255.938C142.52 257.698 142.52 260.548 144.28 262.298V262.308Z" fill="#00ED64"/>
<path d="M147.46 263.899C146.24 263.899 145.01 263.429 144.08 262.499C142.22 260.639 142.22 257.609 144.08 255.739L171.26 228.559L172.46 240.879L150.84 262.499C149.91 263.429 148.69 263.899 147.46 263.899ZM144.47 262.109C146.12 263.759 148.79 263.759 150.44 262.109L171.87 240.679L170.81 229.799L144.46 256.149C142.81 257.799 142.81 260.469 144.46 262.119L144.47 262.109Z" fill="#001E2B"/>
<path d="M221.07 358.269L197.11 382.229C187.13 392.209 170.95 392.209 160.97 382.229L156.42 377.679C146.44 367.699 146.44 351.519 156.42 341.539L257.15 240.809C270.75 227.209 270.62 204.999 256.77 191.559C252.99 187.889 248.57 185.289 243.87 183.719C242.33 187.299 241.21 190.239 240.55 192.049C244.48 193.309 248.16 195.539 251.22 198.739C260.85 208.839 260.32 224.909 250.45 234.779L150.06 335.169C136.57 348.659 136.57 370.539 150.06 384.039L154.61 388.589C168.1 402.079 189.98 402.079 203.48 388.589L227.5 364.569L221.08 358.269H221.07Z" fill="#00ED64"/>
<path d="M179.04 398.979C170.12 398.979 161.2 395.579 154.41 388.789L149.86 384.239C136.28 370.659 136.28 348.559 149.86 334.979L250.25 234.589C260.06 224.779 260.41 208.779 251.02 198.939C248.11 195.889 244.47 193.599 240.47 192.319L240.19 192.229L240.29 191.959C240.96 190.129 242.08 187.189 243.61 183.609L243.71 183.379L243.95 183.459C248.86 185.099 253.23 187.749 256.95 191.359C263.7 197.899 267.45 206.689 267.52 216.099C267.59 225.519 263.97 234.359 257.33 240.999L156.6 341.729C146.74 351.589 146.74 367.619 156.6 377.479L161.15 382.029C171.01 391.889 187.04 391.889 196.9 382.029L221.06 357.869L227.88 364.559L203.66 388.779C196.87 395.569 187.95 398.969 179.03 398.969L179.04 398.979ZM240.91 191.889C244.89 193.209 248.51 195.519 251.42 198.559C261.02 208.619 260.67 224.959 250.65 234.989L150.26 335.379C136.9 348.739 136.9 370.489 150.26 383.859L154.81 388.409C168.17 401.769 189.92 401.769 203.29 388.409L227.11 364.589L221.08 358.679L197.31 382.449C187.24 392.519 170.85 392.519 160.78 382.449L156.23 377.899C146.16 367.829 146.16 351.439 156.23 341.369L256.96 240.639C263.49 234.109 267.05 225.399 266.98 216.139C266.91 206.879 263.22 198.229 256.58 191.789C252.98 188.299 248.76 185.709 244.03 184.099C242.63 187.389 241.58 190.119 240.92 191.909L240.91 191.889Z" fill="#001E2B"/>
<path d="M289.25 290.098L268.34 311.008C270.47 313.178 272.87 315.388 274.9 317.178L296.9 295.178L289.25 290.098Z" fill="#00ED64"/>
<path d="M274.9 317.558L274.7 317.388C272.16 315.138 269.95 313.058 268.13 311.208L267.94 311.008L289.21 289.738L297.33 295.128L274.9 317.558ZM268.72 311.008C270.45 312.758 272.52 314.698 274.87 316.798L296.45 295.218L289.28 290.448L268.72 311.008Z" fill="#001E2B"/>
<path d="M328.8 308.421C329.21 308.011 329.58 307.591 329.95 307.151L349.53 287.571L315.81 269.901L298.26 236.311L278.68 255.891C278.24 256.251 277.82 256.631 277.41 257.041C268.78 265.671 269.83 281.201 279.01 294.381L276.97 296.421C273.53 299.861 273.53 305.431 276.97 308.871C280.41 312.311 285.98 312.311 289.42 308.871L291.46 306.831C304.64 316.021 320.16 317.061 328.8 308.431V308.421Z" fill="#00ED64"/>
<path d="M313.26 314.63C306.35 314.63 298.67 312.13 291.5 307.18L289.63 309.05C286.09 312.59 280.33 312.59 276.79 309.05C273.25 305.51 273.25 299.75 276.79 296.21L278.66 294.34C269.29 280.77 268.69 265.37 277.22 256.84C277.59 256.47 278 256.1 278.51 255.68L298.34 235.85L316.03 269.7L350 287.51L330.15 307.36C329.74 307.85 329.37 308.26 329 308.63C324.98 312.65 319.43 314.64 313.26 314.64V314.63ZM291.43 306.45L291.62 306.58C305.02 315.92 320.22 316.59 328.6 308.22C328.96 307.86 329.32 307.47 329.73 306.97L349.06 287.64L315.6 270.1L315.56 270.02L298.18 236.76L278.87 256.07C278.36 256.5 277.96 256.86 277.6 257.22C269.22 265.6 269.9 280.8 279.24 294.2L279.37 294.39L277.17 296.59C273.85 299.91 273.85 305.32 277.17 308.65C280.49 311.97 285.9 311.97 289.23 308.65L291.43 306.45Z" fill="#001E2B"/>
<path d="M348.67 293.03C340.28 301.42 320.94 295.69 305.48 280.23C290.02 264.77 284.29 245.43 292.68 237.04L301.05 228.67C309.44 220.28 328.78 226.01 344.24 241.47C359.7 256.93 365.43 276.27 357.04 284.66L348.67 293.03ZM342.09 243.62C328.2 229.73 311.09 224.31 303.89 231.51C296.68 238.72 302.11 255.82 316 269.71C329.89 283.6 347 289.02 354.2 281.82C361.41 274.61 355.98 257.51 342.09 243.62Z" fill="#001E2B"/>
<path d="M362.185 278.305C370.14 270.35 364.451 251.764 349.478 236.791C334.506 221.819 315.919 216.13 307.964 224.085C300.009 232.039 305.698 250.626 320.671 265.599C335.644 280.571 354.23 286.26 362.185 278.305Z" fill="white"/>
<path d="M354.48 287.219C346.09 295.609 326.75 289.879 311.29 274.419C295.83 258.959 290.1 239.619 298.49 231.229L306.86 222.859C315.25 214.469 334.59 220.199 350.05 235.659C365.51 251.119 371.24 270.459 362.85 278.849L354.48 287.219ZM348.55 237.159C333.96 222.569 316 216.879 308.43 224.439C300.86 232.009 306.56 249.969 321.15 264.559C335.74 279.149 353.7 284.839 361.27 277.279C368.84 269.719 363.14 251.749 348.55 237.159Z" fill="#B1FF05"/>
<path d="M343.89 291.37C341.31 291.37 338.48 290.93 335.46 290.03C327.26 287.6 318.61 282.12 311.1 274.61C295.55 259.06 289.81 239.51 298.3 231.03L306.67 222.66C310.8 218.53 317.63 217.6 325.89 220.05C334.09 222.48 342.74 227.96 350.25 235.47C357.76 242.98 363.24 251.63 365.67 259.83C368.12 268.09 367.19 274.92 363.06 279.05L354.69 287.42C352.07 290.04 348.36 291.37 343.9 291.37H343.89ZM317.45 219.27C313.13 219.27 309.57 220.55 307.05 223.06L298.68 231.43C290.41 239.7 296.15 258.9 311.48 274.23C318.93 281.68 327.5 287.1 335.61 289.51C343.67 291.9 350.3 291.02 354.28 287.03L362.65 278.66C366.63 274.68 367.51 268.05 365.12 259.99C362.72 251.88 357.29 243.31 349.84 235.86C342.39 228.41 333.82 222.99 325.71 220.58C322.74 219.7 319.96 219.26 317.44 219.26L317.45 219.27ZM352.03 280.91C349.53 280.91 346.75 280.44 343.76 279.49C336.14 277.07 328.04 271.84 320.95 264.75C313.86 257.66 308.63 249.56 306.21 241.94C303.78 234.26 304.49 227.97 308.23 224.23C311.97 220.49 318.25 219.78 325.94 222.21C333.56 224.63 341.66 229.86 348.75 236.95C355.84 244.04 361.07 252.14 363.49 259.76C365.92 267.44 365.21 273.73 361.47 277.47C359.19 279.75 355.96 280.91 352.04 280.91H352.03ZM317.67 221.36C313.9 221.36 310.8 222.46 308.63 224.64C301.18 232.09 306.89 249.91 321.35 264.37C328.38 271.4 336.4 276.58 343.93 278.97C351.4 281.34 357.49 280.67 361.08 277.09C364.66 273.51 365.33 267.42 362.96 259.94C360.57 252.4 355.39 244.38 348.36 237.36C341.33 230.33 333.31 225.15 325.78 222.76C322.84 221.83 320.12 221.37 317.68 221.37L317.67 221.36Z" fill="#001E2B"/>
<path d="M276.58 296.79C277.28 302.73 283.69 308.66 289.03 309.24L291.65 306.62C288.09 304.36 282.37 298.68 279.2 294.17L276.58 296.79Z" fill="#001E2B"/>
<path d="M274.56 304.78L272.03 307.31C272.03 307.31 272.04 309.15 274.3 311.4C276.56 313.66 278.29 313.78 278.29 313.78L280.93 311.14C280.93 311.14 279.25 310.99 277.05 308.79C274.85 306.59 274.57 304.77 274.57 304.77L274.56 304.78Z" fill="#001E2B"/>
<path d="M324.4 254.549L331.16 261.309C331.16 261.309 334.61 257.029 331.64 254.069C328.67 251.099 324.4 254.549 324.4 254.549Z" fill="#001E2B"/>
<path d="M333.16 234.901L330.26 232.002L321.436 240.827L324.335 243.726L333.16 234.901Z" fill="#001E2B"/>
<path d="M353.71 255.444L350.81 252.545L341.986 261.37L344.885 264.269L353.71 255.444Z" fill="#001E2B"/>
<path d="M328.48 291.68L322.2 297.96C322.2 297.96 302.62 318.69 284.91 300.98C284.91 300.98 293.02 310.96 307.61 313.71C314.18 314.95 319.81 313.97 323.76 312.03C328.58 309.67 331.37 305.72 336.36 300.73C345.44 291.65 340.71 295.85 340.71 295.85L328.48 291.67V291.68Z" fill="#001E2B"/>
<path d="M434.78 163.529L437.89 160.189C433.16 161.049 425.82 156.039 424.36 149.039L422.32 151.079C422.32 151.079 420.36 155.079 424.96 159.529C429.96 164.369 434.77 163.539 434.77 163.539" fill="#001E2B"/>
</svg>
